# xmcd
#
# Track frame offsets: 
#        150
#        15788
#        32521
#        47763
#        60001
#        76623
#        94186
#        108721
#        125238
#        136105
#        149113
#        166969
#        181325
#        195570
#        209158
#        223577
#        239256
#        256652
#
# Disc length: 3563 seconds
#
# Revision: 0
# Processed by: cddbd v1.5.2PL0 Copyright (c) Steve Scherf et al.
# Submitted via: ExactAudioCopy v0.99pb4
#
DISCID=f50de912
DTITLE=Christoff - Kerstmis Met Jou
DYEAR=2016
DGENRE=Chanson
TTITLE0=Kerstmis Met Jou
TTITLE1=Kerstmis Vier Je Niet Alleen
TTITLE2=De Kleine Trommelaar (Met Kinderkoor Scaletta)
TTITLE3=Witte Kerstmis, White Christmas, Weisse Weihnacht
TTITLE4=Een Ster Die Voor Ons Schijnt
TTITLE5=Thuis Voor Kerstmis
TTITLE6=De Zoetste Der Vrouwen
TTITLE7=Glorie Halleluja (Met Kinderkoor Scaletta)
TTITLE8=Geniet Van Dit Sneeuwtapijt
TTITLE9=Onze Vader
TTITLE10=Wij Willen Vrede (Met Lindsay)
TTITLE11=Vaarwel
TTITLE12=Een Ster (Feat. Scala and Kolacny Brothers)
TTITLE13=Amazing Grace
TTITLE14=Een Dag Vol Liefde (Xmas Mix)
TTITLE15=Ich Wünsche Mir Frieden (Duet Met Semino Rossi)
TTITLE16=That's What Friends Are For (Live)
TTITLE17=Onze Vader (Live Gospel)
EXTD=
EXTT0=
EXTT1=
EXTT2=
EXTT3=
EXTT4=
EXTT5=
EXTT6=
EXTT7=
EXTT8=
EXTT9=
EXTT10=
EXTT11=
EXTT12=
EXTT13=
EXTT14=
EXTT15=
EXTT16=
EXTT17=
PLAYORDER=
